<svg xmlns="http://www.w3.org/2000/svg" viewBox="0 0 144.655 149.489"><defs><style>.a{fill:#4a4a4a;}</style></defs><path class="a" d="M72.628,149.489a18.151,18.151,0,0,1-12.976-5.566L5.667,88.14a19.38,19.38,0,0,1,0-26.773L59.653,5.544a17.909,17.909,0,0,1,25.912,0L139.59,61.326a19.381,19.381,0,0,1,0,26.774L85.6,143.923a18.155,18.155,0,0,1-12.976,5.566Zm0-143.01A11.921,11.921,0,0,0,64.1,10.135L10.11,65.918a12.724,12.724,0,0,0,0,17.591L64.1,139.331a11.759,11.759,0,0,0,17.026,0l54.025-55.782a12.727,12.727,0,0,0,0-17.591L81.161,10.135a11.921,11.921,0,0,0-8.532-3.656Zm0,0" transform="translate(-0.301 0)"/><path class="a" d="M209.814,109.764A17.583,17.583,0,1,1,227.4,92.181,17.582,17.582,0,0,1,209.814,109.764Zm0-28.133a10.55,10.55,0,1,0,10.55,10.55,10.55,10.55,0,0,0-10.55-10.55Zm0,0" transform="translate(-137.486 -52.385)"/><path class="a" d="M209.814,323.1A17.583,17.583,0,1,1,227.4,305.513,17.583,17.583,0,0,1,209.814,323.1Zm0-28.134a10.55,10.55,0,1,0,10.55,10.55,10.55,10.55,0,0,0-10.55-10.55Zm0,0" transform="translate(-137.486 -202.193)"/><path class="a" d="M316.478,216.429a17.583,17.583,0,1,1,17.583-17.583A17.584,17.584,0,0,1,316.478,216.429Zm0-28.133a10.55,10.55,0,1,0,10.55,10.55A10.549,10.549,0,0,0,316.478,188.3Zm0,0" transform="translate(-213.726 -127.288)"/><path class="a" d="M168.746,55.984l4.974-4.972,12.912,12.912L181.658,68.9Zm0,0" transform="translate(-119.8 -34.194)"/><path class="a" d="M268.121,155.466l4.974-4.974,15.275,15.275-4.974,4.974Zm0,0" transform="translate(-190.475 -105.174)"/><path class="a" d="M234.895,170.6h7.034v42.2h-7.034Zm0,0" transform="translate(-166.085 -120.12)"/></svg>