<svg xmlns="http://www.w3.org/2000/svg" viewBox="0 0 119.361 135.452"><defs><style>.a{fill:#4a4a4a;}</style></defs><g transform="translate(0)"><path class="a" d="M19.843,0a2.038,2.038,0,0,0-2.062,2.254l10.5,117.721a3.524,3.524,0,0,0,2.382,2.86L75.195,135.2a9.658,9.658,0,0,0,4.363,0l44.672-12.386a3.524,3.524,0,0,0,2.383-2.859l10.512-117.7A2.038,2.038,0,0,0,135.063,0Zm94.931,27c-.1,1.106-.271,3.026-.381,4.266l-.277,3.089c-.111,1.239-.27,3.012-.354,3.939s-.163,1.685-.177,1.685H58.509a2.038,2.038,0,0,0-2.062,2.254l.97,10.844a2.529,2.529,0,0,0,2.465,2.254h50.345a1.814,1.814,0,0,1,1.834,2.011c-.1,1.106-.273,3.026-.384,4.266l-3.12,34.961c-.111,1.24-.252,2.824-.313,3.52s-1.094,1.537-2.293,1.87l-26.316,7.3c-1.2.332-2.2.608-2.215.612s-1.015-.265-2.215-.6l-26.344-7.31a3.523,3.523,0,0,1-2.382-2.86l-1.7-19.033a2.039,2.039,0,0,1,2.063-2.254H57.361a2.529,2.529,0,0,1,2.465,2.254l.665,7.451a3.492,3.492,0,0,0,2.386,2.844L75.2,93.688c1.2.325,2.189.59,2.195.59s.993-.266,2.195-.591l12.345-3.336a3.5,3.5,0,0,0,2.387-2.844L95.66,72.58A2.037,2.037,0,0,0,93.6,70.325H46.174a2.528,2.528,0,0,1-2.464-2.254L40.425,31.264c-.11-1.24-.282-3.159-.381-4.266a1.939,1.939,0,0,1,2.084-2.011H112.69A1.938,1.938,0,0,1,114.774,27Z" transform="translate(-17.772)"/></g></svg>