<svg xmlns="http://www.w3.org/2000/svg" viewBox="0 0 134.851 134.851"><defs><style>.a{fill:#4a4a4a;}.b{fill:rgba(255,255,255,0.65);}</style></defs><g transform="translate(0)"><rect class="a" width="134.85" height="134.85"/><path class="b" d="M220.959,330.048c2.716,4.435,6.25,7.7,12.5,7.7,5.251,0,8.6-2.624,8.6-6.25,0-4.345-3.446-5.884-9.225-8.412l-3.168-1.359c-9.144-3.9-15.219-8.776-15.219-19.093,0-9.5,7.241-16.739,18.558-16.739,8.057,0,13.849,2.8,18.023,10.146l-9.868,6.336c-2.173-3.9-4.516-5.43-8.155-5.43-3.712,0-6.064,2.355-6.064,5.43,0,3.8,2.355,5.34,7.791,7.7l3.168,1.357c10.767,4.617,16.846,9.324,16.846,19.906,0,11.409-8.962,17.659-21,17.659-11.768,0-19.371-5.608-23.092-12.958Zm-44.764,1.1c1.991,3.532,3.8,6.518,8.155,6.518,4.163,0,6.79-1.629,6.79-7.963V286.613h12.672v43.259c0,13.121-7.693,19.093-18.922,19.093-10.146,0-16.022-5.251-19.01-11.575Z" transform="translate(-130.374 -224.696)"/></g></svg>